<?xml version="1.0" encoding="UTF-8" standalone="no"?>
<!-- Created with Inkscape (http://www.inkscape.org/) -->

<svg
   xmlns:dc="http://purl.org/dc/elements/1.1/"
   xmlns:cc="http://creativecommons.org/ns#"
   xmlns:rdf="http://www.w3.org/1999/02/22-rdf-syntax-ns#"
   xmlns:svg="http://www.w3.org/2000/svg"
   xmlns="http://www.w3.org/2000/svg"
   xmlns:sodipodi="http://sodipodi.sourceforge.net/DTD/sodipodi-0.dtd"
   xmlns:inkscape="http://www.inkscape.org/namespaces/inkscape"
   width="210mm"
   height="297mm"
   viewBox="0 0 744.09448819 1052.3622047"
   id="svg4553"
   version="1.1"
   inkscape:version="0.91 r"
   sodipodi:docname="newlogo.svg"
   inkscape:export-filename="/home/paolo/Projects/cryptocasket/res/drawable-ldpi/cc_launcher.png"
   inkscape:export-xdpi="4.909091"
   inkscape:export-ydpi="4.909091">
  <defs
     id="defs4555" />
  <sodipodi:namedview
     id="base"
     pagecolor="#ffffff"
     bordercolor="#666666"
     borderopacity="1.0"
     inkscape:pageopacity="0.0"
     inkscape:pageshadow="2"
     inkscape:zoom="0.7"
     inkscape:cx="316.42857"
     inkscape:cy="285.24463"
     inkscape:document-units="px"
     inkscape:current-layer="layer2"
     showgrid="false"
     inkscape:window-width="1280"
     inkscape:window-height="972"
     inkscape:window-x="0"
     inkscape:window-y="0"
     inkscape:window-maximized="1" />
  <metadata
     id="metadata4558">
    <rdf:RDF>
      <cc:Work
         rdf:about="">
        <dc:format>image/svg+xml</dc:format>
        <dc:type
           rdf:resource="http://purl.org/dc/dcmitype/StillImage" />
        <dc:title />
      </cc:Work>
    </rdf:RDF>
  </metadata>
  <g
     inkscape:groupmode="layer"
     id="layer2"
     inkscape:label="bg">
    <rect
       style="opacity:1;fill:none;fill-opacity:1;fill-rule:evenodd;stroke-width:0;stroke-linecap:round;stroke-linejoin:miter;stroke-miterlimit:4;stroke-dasharray:none;image-rendering:auto"
       id="rect4180"
       width="660"
       height="660"
       x="-11.428572"
       y="462.36221" />
  </g>
  <g
     inkscape:label="robot"
     inkscape:groupmode="layer"
     id="layer1"
     style="display:inline">
    <path
       inkscape:connector-curvature="0"
       id="c-4-14-6-4-9"
       style="fill:#a4c639"
       d="m 165.91231,834.12727 0,0 c 18.89717,0 34.21673,15.31957 34.21673,34.21674 l 0,146.78039 c 0,18.8972 -15.31956,34.2144 -34.21673,34.2144 l 0,0 c -18.89477,0 -34.21434,-15.3172 -34.21434,-34.2144 l 0,-146.78039 c 0,-18.89717 15.31957,-34.21674 34.21434,-34.21674 z" />
    <path
       id="rect8719-3-2-7-4-3"
       inkscape:connector-curvature="0"
       style="fill:#a4c639"
       d="m 87.798393,657.65437 c -0.112927,1.29745 -0.211437,2.60932 -0.211437,3.93561 l 0,222.38594 c 0,23.91639 18.930804,43.18358 42.431534,43.18358 l 226.15097,0 c 23.50313,0 42.43394,-19.26719 42.43394,-43.18358 l 0,-222.38594 c 0,-1.32629 -0.0481,-2.64056 -0.15858,-3.93561 l -310.646427,0 0,0 z" />
    <path
       inkscape:connector-curvature="0"
       id="c-4-8-9-1-4-9"
       style="fill:#a4c639"
       d="m 320.28045,834.12727 0,0 c 18.89717,0 34.21673,15.31957 34.21673,34.21674 l 0,146.78039 c 0,18.8972 -15.31956,34.2144 -34.21673,34.2144 l 0,0 c -18.89477,0 -34.21433,-15.3172 -34.21433,-34.2144 l 0,-146.78039 c 0,-18.89717 15.31956,-34.21674 34.21433,-34.21674 z" />
    <path
       inkscape:connector-curvature="0"
       id="c-4-9-2-9-2-9"
       style="fill:#a4c639"
       d="m 32.610965,677.44774 0,0 c 18.894768,0 34.214331,15.31956 34.214331,34.21674 l 0,146.78044 c 0,18.89717 -15.319563,34.21673 -34.214331,34.21673 l 0,0 c -18.897171,0 -34.2167344,-15.31956 -34.2167344,-34.21673 l 0,-146.78044 c -0.0024,-18.89718 15.3171604,-34.21674 34.2167344,-34.21674 z" />
    <path
       id="path4090-4-4-4-8"
       inkscape:connector-curvature="0"
       style="fill:#a4c639"
       d="M 88.797912,643.046 C 89.749378,574.73987 149.36977,518.73073 225.90031,511.34966 l 34.38733,0 c 76.53534,7.38347 136.15093,63.39262 137.1024,131.69634 l -308.592128,0 z" />
    <path
       id="path4160-1-3-5-6"
       inkscape:connector-curvature="0"
       style="fill:none;stroke:#a4c639;stroke-width:7.20807552;stroke-linecap:round;stroke-linejoin:round"
       d="m 100.69844,504.75667 36.09324,62.52044" />
    <path
       id="path4160-9-0-1-7-9"
       inkscape:connector-curvature="0"
       style="fill:none;stroke:#a4c639;stroke-width:7.20807552;stroke-linecap:round;stroke-linejoin:round"
       d="m 385.49671,504.75667 -36.09564,62.52044" />
    <path
       id="path4109-7-3-2-5-7-2-0"
       inkscape:connector-curvature="0"
       style="fill:#ffffff"
       d="m 197.13048,581.83022 c 0.0288,9.5483 -7.87362,17.31139 -17.65258,17.33782 -9.77415,0.0264 -17.72225,-7.69342 -17.75108,-17.24171 0,-0.0336 0,-0.0649 0,-0.0961 -0.0264,-9.5507 7.87602,-17.3114 17.65257,-17.33783 9.77415,-0.0264 17.72226,7.69102 17.75109,17.24172 0,0.0312 0,0.0649 0,0.0961 z" />
    <path
       id="path4109-0-0-3-1-5-0-0-0"
       inkscape:connector-curvature="0"
       style="fill:#ffffff"
       d="m 329.26892,581.83022 c 0.0288,9.5483 -7.87362,17.31139 -17.65258,17.33782 -9.77415,0.0264 -17.72225,-7.69342 -17.75109,-17.24171 0,-0.0336 0,-0.0649 0,-0.0961 -0.0264,-9.5507 7.87603,-17.3114 17.65258,-17.33783 9.77415,-0.0264 17.72226,7.69102 17.75109,17.24172 0,0.0312 0,0.0649 0,0.0961 z" />
  </g>
  <g
     inkscape:groupmode="layer"
     id="layer5"
     inkscape:label="metal"
     style="display:inline">
    <g
       id="g4824"
       transform="matrix(1.008,0,0,1,-2.2628572,0)">
      <rect
         ry="0"
         rx="0"
         y="870.93359"
         x="282.85715"
         height="177.14282"
         width="357.14285"
         id="rect4820"
         style="opacity:1;fill:#e3dbdb;fill-opacity:1;fill-rule:evenodd;stroke-width:0;stroke-linecap:round;stroke-linejoin:miter;stroke-miterlimit:4;stroke-dasharray:none" />
      <rect
         rx="11.5477"
         y="763.79077"
         x="392.85715"
         height="115.71429"
         width="141.42857"
         id="rect4822"
         style="opacity:1;fill:#e3dbdb;fill-opacity:1;fill-rule:evenodd;stroke-width:0;stroke-linecap:round;stroke-linejoin:miter;stroke-miterlimit:4;stroke-dasharray:none" />
    </g>
  </g>
  <g
     inkscape:groupmode="layer"
     id="layer4"
     inkscape:label="t-chest"
     style="display:inline">
    <g
       id="g4749"
       transform="matrix(0.36652276,0,0,0.36652276,279.9089,716.79634)"
       style="fill:#502d16;fill-opacity:1">
      <g
         id="g4751"
         style="fill:#502d16;fill-opacity:1">
        <g
           id="g4753"
           style="fill:#502d16;fill-opacity:1">
          <path
             id="path4755"
             d="m 586.8,327.2 c 0,-48.2 -38.8,-87 -86.8,-87 -47.9,0 -86.9,38.8 -86.9,87 l 0,123.6 173.7,0 0,-123.6 z"
             inkscape:connector-curvature="0"
             style="fill:#502d16;fill-opacity:1" />
          <path
             id="path4757"
             d="m 801.5,85.4 -603,0 C 94.8,85.4 10,170.2 10,273.8 l 0,177 315.9,0 0,-123.6 c 0,-96 78,-174.2 174,-174.2 96,0 174.1,78.2 174.1,174.2 l 0,123.6 316,0 0,-177 C 990,170.2 905.2,85.4 801.5,85.4 Z"
             inkscape:connector-curvature="0"
             style="fill:#502d16;fill-opacity:1" />
          <polygon
             id="polygon4759"
             points="990,549.2 754.8,549.2 754.8,847 245.2,847 245.2,549.2 10,549.2 10,914.6 990,914.6 "
             style="fill:#502d16;fill-opacity:1" />
          <path
             id="path4761"
             d="m 558.1,737.8 c -0.1,-3.8 -32,-131.9 -32,-131.9 17.9,-9.4 30.3,-28 30.3,-49.7 0,-31.1 -25.2,-56.4 -56.3,-56.4 -31.2,0 -56.4,25.3 -56.4,56.4 0,21.7 12.4,40.4 30.3,49.7 0,0 -32.3,128.4 -32.3,132.9 0,22.4 26.1,40.5 58.3,40.5 32.2,0 58.3,-18.1 58.3,-40.5 0,0 0,0 0,0 l 0.1,0 -0.3,-1 z"
             inkscape:connector-curvature="0"
             style="fill:#502d16;fill-opacity:1" />
        </g>
      </g>
      <g
         id="g4763"
         style="fill:#502d16;fill-opacity:1" />
      <g
         id="g4765"
         style="fill:#502d16;fill-opacity:1" />
      <g
         id="g4767"
         style="fill:#502d16;fill-opacity:1" />
      <g
         id="g4769"
         style="fill:#502d16;fill-opacity:1" />
      <g
         id="g4771"
         style="fill:#502d16;fill-opacity:1" />
      <g
         id="g4773"
         style="fill:#502d16;fill-opacity:1" />
      <g
         id="g4775"
         style="fill:#502d16;fill-opacity:1" />
      <g
         id="g4777"
         style="fill:#502d16;fill-opacity:1" />
      <g
         id="g4779"
         style="fill:#502d16;fill-opacity:1" />
      <g
         id="g4781"
         style="fill:#502d16;fill-opacity:1" />
      <g
         id="g4783"
         style="fill:#502d16;fill-opacity:1" />
      <g
         id="g4785"
         style="fill:#502d16;fill-opacity:1" />
      <g
         id="g4787"
         style="fill:#502d16;fill-opacity:1" />
      <g
         id="g4789"
         style="fill:#502d16;fill-opacity:1" />
      <g
         id="g4791"
         style="fill:#502d16;fill-opacity:1" />
    </g>
  </g>
  <g
     style="display:inline"
     id="g4828"
     inkscape:groupmode="layer"
     inkscape:label="arm">
    <path
       d="m 428.11249,686.46988 0,0 c 14.68151,-11.89393 36.22842,-9.6338 48.12388,5.04957 l 92.39574,114.05054 c 11.89544,14.68338 9.63532,36.23029 -5.04619,48.12423 l 0,0 c -14.68337,11.89545 -36.23029,9.63531 -48.12573,-5.04806 L 423.06444,734.59563 c -11.89546,-14.68339 -9.63533,-36.23029 5.04805,-48.12575 z"
       style="fill:#a4c639"
       id="path4840"
       inkscape:connector-curvature="0"
       inkscape:transform-center-y="52.170853"
       inkscape:transform-center-x="-42.265354" />
  </g>
</svg>
