<?xml version="1.0" encoding="UTF-8" standalone="no"?>
<!-- Created with Inkscape (http://www.inkscape.org/) -->

<svg
   xmlns:dc="http://purl.org/dc/elements/1.1/"
   xmlns:cc="http://creativecommons.org/ns#"
   xmlns:rdf="http://www.w3.org/1999/02/22-rdf-syntax-ns#"
   xmlns:svg="http://www.w3.org/2000/svg"
   xmlns="http://www.w3.org/2000/svg"
   xmlns:xlink="http://www.w3.org/1999/xlink"
   xmlns:sodipodi="http://sodipodi.sourceforge.net/DTD/sodipodi-0.dtd"
   xmlns:inkscape="http://www.inkscape.org/namespaces/inkscape"
   width="32px"
   height="32px"
   id="svg4457"
   version="1.1"
   inkscape:version="0.48.3.1 r9886"
   sodipodi:docname="cryptocasket.svg">
  <defs
     id="defs4459">
    <linearGradient
       id="linearGradient5339">
      <stop
         style="stop-color:#ffffff;stop-opacity:0;"
         offset="0"
         id="stop5341" />
      <stop
         id="stop5351"
         offset="1"
         style="stop-color:#f7891d;stop-opacity:0.78431374;" />
    </linearGradient>
    <linearGradient
       id="linearGradient5315">
      <stop
         style="stop-color:#ffffff;stop-opacity:0;"
         offset="0"
         id="stop5349" />
      <stop
         style="stop-color:#000000;stop-opacity:0.369863;"
         offset="1"
         id="stop5319" />
    </linearGradient>
    <radialGradient
       inkscape:collect="always"
       xlink:href="#linearGradient5315"
       id="radialGradient5321"
       cx="750"
       cy="79.61834"
       fx="750"
       fy="79.61834"
       r="19.618999"
       gradientTransform="matrix(1,0,0,1.1657405,0,-13.19598)"
       gradientUnits="userSpaceOnUse"
       spreadMethod="pad" />
    <radialGradient
       inkscape:collect="always"
       xlink:href="#linearGradient5339"
       id="radialGradient5347"
       cx="29.6765"
       cy="199.11"
       fx="29.6765"
       fy="199.11"
       r="17.244499"
       gradientTransform="matrix(1,0,0,1.3047638,0,-60.681524)"
       gradientUnits="userSpaceOnUse"
       spreadMethod="pad" />
  </defs>
  <sodipodi:namedview
     id="base"
     pagecolor="#ffffff"
     bordercolor="#666666"
     borderopacity="1.0"
     inkscape:pageopacity="0.0"
     inkscape:pageshadow="2"
     inkscape:zoom="11.197802"
     inkscape:cx="4.4793905"
     inkscape:cy="16"
     inkscape:current-layer="layer2"
     showgrid="true"
     inkscape:grid-bbox="true"
     inkscape:document-units="px"
     inkscape:window-width="1241"
     inkscape:window-height="862"
     inkscape:window-x="14"
     inkscape:window-y="57"
     inkscape:window-maximized="0">
    <inkscape:grid
       type="xygrid"
       id="grid4482" />
  </sodipodi:namedview>
  <metadata
     id="metadata4462">
    <rdf:RDF>
      <cc:Work
         rdf:about="">
        <dc:format>image/svg+xml</dc:format>
        <dc:type
           rdf:resource="http://purl.org/dc/dcmitype/StillImage" />
        <dc:title />
      </cc:Work>
    </rdf:RDF>
  </metadata>
  <g
     id="layer1"
     inkscape:label="robot"
     inkscape:groupmode="layer"
     style="display:inline">
    <g
       transform="matrix(0.66305435,0,0,0.66555958,-481.32764,-36.80781)"
       id="Android"
       style="fill:#86b22d;fill-opacity:1">
      <g
         id="g3459"
         style="fill:#86b22d;fill-opacity:1">
        <path
           style="fill:#86b22d;fill-opacity:1"
           inkscape:connector-curvature="0"
           d="m 733.131,71.669 c -1.52,0 -2.75,1.25 -2.75,2.793 v 10.914 c 0,1.542 1.23,2.794 2.75,2.794 1.52,0 2.75,-1.252 2.75,-2.794 V 74.462 c 0,-1.543 -1.231,-2.793 -2.75,-2.793 l 0,0 z"
           id="path3461" />
        <path
           style="fill:#86b22d;fill-opacity:1"
           inkscape:connector-curvature="0"
           d="m 737.881,71.831 v 19.752 c 0,1.174 0.953,2.125 2.125,2.125 h 2.426 v 6.015 c 0,1.527 1.221,2.766 2.725,2.766 1.504,0 2.725,-1.238 2.725,-2.766 v -6.015 h 4.24 v 6.015 c 0,1.527 1.217,2.766 2.725,2.766 1.504,0 2.723,-1.238 2.723,-2.766 v -6.015 h 2.428 c 1.172,0 2.123,-0.952 2.123,-2.125 V 71.831 h -24.24 l 0,0 0,0 z"
           id="path3463" />
        <path
           style="fill:#86b22d;fill-opacity:1"
           inkscape:connector-curvature="0"
           d="m 766.871,71.666 c -1.518,0 -2.752,1.252 -2.752,2.795 v 10.918 c 0,1.543 1.234,2.795 2.752,2.795 1.52,0 2.748,-1.252 2.748,-2.795 V 74.46 c 0,-1.543 -1.228,-2.794 -2.748,-2.794 l 0,0 z"
           id="path3465" />
        <path
           style="fill:#86b22d;fill-opacity:1"
           inkscape:connector-curvature="0"
           d="m 756.357,61.695 2.303,-3.384 c 0.311,-0.456 0.193,-1.079 -0.264,-1.39 -0.457,-0.311 -1.08,-0.192 -1.389,0.265 l -2.512,3.69 c -1.393,-0.482 -2.904,-0.759 -4.496,-0.759 -1.59,0 -3.102,0.276 -4.494,0.758 l -2.512,-3.69 c -0.313,-0.456 -0.934,-0.574 -1.391,-0.264 -0.457,0.31 -0.574,0.934 -0.264,1.39 l 2.305,3.384 c -3.225,1.721 -5.465,4.692 -5.764,8.146 h 24.238 c -0.297,-3.455 -2.535,-6.426 -5.76,-8.146 z m -11.468,4.794 c -0.74,0 -1.342,-0.601 -1.342,-1.341 0,-0.74 0.6,-1.341 1.342,-1.341 0.74,0 1.34,0.601 1.34,1.341 0,0.74 -0.6,1.341 -1.34,1.341 z m 10.392,0 c -0.742,0 -1.34,-0.601 -1.34,-1.341 0,-0.74 0.598,-1.341 1.34,-1.341 0.74,0 1.342,0.601 1.342,1.341 0,0.74 -0.602,1.341 -1.342,1.341 z"
           id="path3467" />
      </g>
    </g>
  </g>
  <g
     style="display:inline"
     inkscape:groupmode="layer"
     inkscape:label="robotgrad"
     id="g5301">
    <g
       style="fill:url(#radialGradient5321);fill-opacity:1"
       id="g5303"
       transform="matrix(0.66305435,0,0,0.66555958,-481.32764,-36.80781)">
      <g
         style="fill:url(#radialGradient5321);fill-opacity:1"
         id="g5305">
        <path
           id="path5307"
           d="m 733.131,71.669 c -1.52,0 -2.75,1.25 -2.75,2.793 v 10.914 c 0,1.542 1.23,2.794 2.75,2.794 1.52,0 2.75,-1.252 2.75,-2.794 V 74.462 c 0,-1.543 -1.231,-2.793 -2.75,-2.793 l 0,0 z"
           inkscape:connector-curvature="0"
           style="fill:url(#radialGradient5321);fill-opacity:1" />
        <path
           id="path5309"
           d="m 737.881,71.831 v 19.752 c 0,1.174 0.953,2.125 2.125,2.125 h 2.426 v 6.015 c 0,1.527 1.221,2.766 2.725,2.766 1.504,0 2.725,-1.238 2.725,-2.766 v -6.015 h 4.24 v 6.015 c 0,1.527 1.217,2.766 2.725,2.766 1.504,0 2.723,-1.238 2.723,-2.766 v -6.015 h 2.428 c 1.172,0 2.123,-0.952 2.123,-2.125 V 71.831 h -24.24 l 0,0 0,0 z"
           inkscape:connector-curvature="0"
           style="fill:url(#radialGradient5321);fill-opacity:1" />
        <path
           id="path5311"
           d="m 766.871,71.666 c -1.518,0 -2.752,1.252 -2.752,2.795 v 10.918 c 0,1.543 1.234,2.795 2.752,2.795 1.52,0 2.748,-1.252 2.748,-2.795 V 74.46 c 0,-1.543 -1.228,-2.794 -2.748,-2.794 l 0,0 z"
           inkscape:connector-curvature="0"
           style="fill:url(#radialGradient5321);fill-opacity:1" />
        <path
           id="path5313"
           d="m 756.357,61.695 2.303,-3.384 c 0.311,-0.456 0.193,-1.079 -0.264,-1.39 -0.457,-0.311 -1.08,-0.192 -1.389,0.265 l -2.512,3.69 c -1.393,-0.482 -2.904,-0.759 -4.496,-0.759 -1.59,0 -3.102,0.276 -4.494,0.758 l -2.512,-3.69 c -0.313,-0.456 -0.934,-0.574 -1.391,-0.264 -0.457,0.31 -0.574,0.934 -0.264,1.39 l 2.305,3.384 c -3.225,1.721 -5.465,4.692 -5.764,8.146 h 24.238 c -0.297,-3.455 -2.535,-6.426 -5.76,-8.146 z m -11.468,4.794 c -0.74,0 -1.342,-0.601 -1.342,-1.341 0,-0.74 0.6,-1.341 1.342,-1.341 0.74,0 1.34,0.601 1.34,1.341 0,0.74 -0.6,1.341 -1.34,1.341 z m 10.392,0 c -0.742,0 -1.34,-0.601 -1.34,-1.341 0,-0.74 0.598,-1.341 1.34,-1.341 0.74,0 1.342,0.601 1.342,1.341 0,0.74 -0.602,1.341 -1.342,1.341 z"
           inkscape:connector-curvature="0"
           style="fill:url(#radialGradient5321);fill-opacity:1" />
      </g>
    </g>
  </g>
  <g
     inkscape:groupmode="layer"
     id="layer2"
     inkscape:label="lock"
     style="display:inline">
    <g
       transform="matrix(0.28994752,0,0,0.2583045,7.3953724,-33.619157)"
       id="Lock"
       style="fill:#fdff00;fill-opacity:1">
      <path
         style="fill:#fdff00;fill-opacity:1"
         inkscape:connector-curvature="0"
         d="m 43.688,193.586 h -1.077 v -8.353 c 0,-4.743 -3.881,-8.623 -8.623,-8.623 h -8.623 c -4.742,0 -8.623,3.88 -8.623,8.623 v 8.353 h -1.078 c -1.778,0 -3.232,1.455 -3.232,3.234 v 21.557 c 0,1.778 1.454,3.233 3.232,3.233 h 28.024 c 1.779,0 3.233,-1.455 3.233,-3.233 V 196.82 c 10e-4,-1.779 -1.453,-3.234 -3.233,-3.234 z m -11.856,14.928 v 6.81 h -4.311 v -6.81 c -1.413,-0.769 -2.383,-2.248 -2.383,-3.969 0,-2.506 2.031,-4.538 4.538,-4.538 2.505,0 4.536,2.032 4.536,4.538 10e-4,1.721 -0.968,3.2 -2.38,3.969 z m 4.516,-14.928 H 23.006 v -7.545 c 0,-2.371 1.938,-4.31 4.311,-4.31 h 4.721 c 2.37,0 4.311,1.939 4.311,4.31 v 7.545 z"
         id="path4423" />
    </g>
  </g>
  <g
     style="display:inline"
     inkscape:label="lockgrad"
     id="g5325"
     inkscape:groupmode="layer">
    <g
       style="fill:url(#radialGradient5347);fill-opacity:1"
       id="g5327"
       transform="matrix(0.28994752,0,0,0.2583045,7.3953724,-33.619157)">
      <path
         id="path5329"
         d="m 43.688,193.586 h -1.077 v -8.353 c 0,-4.743 -3.881,-8.623 -8.623,-8.623 h -8.623 c -4.742,0 -8.623,3.88 -8.623,8.623 v 8.353 h -1.078 c -1.778,0 -3.232,1.455 -3.232,3.234 v 21.557 c 0,1.778 1.454,3.233 3.232,3.233 h 28.024 c 1.779,0 3.233,-1.455 3.233,-3.233 V 196.82 c 10e-4,-1.779 -1.453,-3.234 -3.233,-3.234 z m -11.856,14.928 v 6.81 h -4.311 v -6.81 c -1.413,-0.769 -2.383,-2.248 -2.383,-3.969 0,-2.506 2.031,-4.538 4.538,-4.538 2.505,0 4.536,2.032 4.536,4.538 10e-4,1.721 -0.968,3.2 -2.38,3.969 z m 4.516,-14.928 H 23.006 v -7.545 c 0,-2.371 1.938,-4.31 4.311,-4.31 h 4.721 c 2.37,0 4.311,1.939 4.311,4.31 v 7.545 z"
         inkscape:connector-curvature="0"
         style="fill:url(#radialGradient5347);fill-opacity:1" />
    </g>
  </g>
</svg>
